<svg xmlns="http://www.w3.org/2000/svg" viewBox="0 0 1200 630" width="1200" height="630">
  <defs>
    <linearGradient id="bg" x1="0%" y1="0%" x2="100%" y2="100%">
      <stop offset="0%" stop-color="#001a0a"/>
      <stop offset="100%" stop-color="#002d12"/>
    </linearGradient>
    <linearGradient id="editorBg" x1="0%" y1="0%" x2="0%" y2="100%">
      <stop offset="0%" stop-color="#1e1e1e"/>
      <stop offset="100%" stop-color="#252526"/>
    </linearGradient>
    <linearGradient id="greenGlow" x1="0%" y1="0%" x2="100%" y2="100%">
      <stop offset="0%" stop-color="#22c55e" stop-opacity="0.15"/>
      <stop offset="100%" stop-color="#22c55e" stop-opacity="0"/>
    </linearGradient>
  </defs>

  <!-- Background -->
  <rect width="1200" height="630" fill="url(#bg)"/>

  <!-- Subtle green glow -->
  <ellipse cx="600" cy="315" rx="500" ry="300" fill="url(#greenGlow)"/>

  <!-- Green accent line top -->
  <rect x="0" y="0" width="1200" height="3" fill="#22c55e" opacity="0.6"/>

  <!-- LEFT SIDE: Icon + Title -->

  <!-- Icon: green rounded square with "Hu" -->
  <rect x="60" y="160" width="100" height="100" rx="18" ry="18" fill="#22c55e"/>
  <text x="110" y="210" text-anchor="middle" dominant-baseline="central" font-family="'Inter', 'Helvetica Neue', Arial, sans-serif" font-size="42" font-weight="700" fill="#ffffff" letter-spacing="-2">Hu</text>

  <!-- Title -->
  <text x="180" y="195" font-family="Inter, Helvetica, Arial, sans-serif" font-weight="700" font-size="44" fill="#ffffff">Hurl Toolkit</text>
  <text x="180" y="240" font-family="Inter, Helvetica, Arial, sans-serif" font-weight="400" font-size="22" fill="#22c55e">for VS Code</text>

  <!-- Features list -->
  <g font-family="Inter, Helvetica, Arial, sans-serif" font-size="16" fill="#a0a0a0">
    <!-- Feature 1 -->
    <circle cx="80" cy="320" r="4" fill="#22c55e"/>
    <text x="95" y="325" fill="#d4d4d4">Syntax highlighting</text>

    <!-- Feature 2 -->
    <circle cx="80" cy="355" r="4" fill="#22c55e"/>
    <text x="95" y="360" fill="#d4d4d4">Run Request (CodeLens)</text>

    <!-- Feature 3 -->
    <circle cx="80" cy="390" r="4" fill="#22c55e"/>
    <text x="95" y="395" fill="#d4d4d4">40+ headers</text>

    <!-- Feature 4 -->
    <circle cx="80" cy="425" r="4" fill="#22c55e"/>
    <text x="95" y="430" fill="#d4d4d4">60+ status codes</text>

    <!-- Feature 5 -->
    <circle cx="80" cy="460" r="4" fill="#22c55e"/>
    <text x="95" y="465" fill="#d4d4d4">21 assert predicates</text>
  </g>

  <!-- RIGHT SIDE: Simulated VS Code Editor -->
  <g transform="translate(480, 80)">
    <!-- Editor window -->
    <rect x="0" y="0" width="660" height="460" rx="8" ry="8" fill="#1e1e1e" stroke="#333" stroke-width="1"/>

    <!-- Title bar -->
    <rect x="0" y="0" width="660" height="36" rx="8" ry="8" fill="#2d2d2d"/>
    <rect x="0" y="20" width="660" height="16" fill="#2d2d2d"/>

    <!-- Traffic lights -->
    <circle cx="18" cy="18" r="6" fill="#ff5f57"/>
    <circle cx="38" cy="18" r="6" fill="#ffbd2e"/>
    <circle cx="58" cy="18" r="6" fill="#28c840"/>

    <!-- Tab -->
    <rect x="80" y="4" width="140" height="28" rx="4" ry="4" fill="#1e1e1e"/>
    <text x="105" y="23" font-family="monospace" font-size="12" fill="#d4d4d4">api-test.hurl</text>

    <!-- Line numbers gutter -->
    <rect x="0" y="36" width="44" height="424" fill="#1a1a1a" rx="0" ry="0"/>

    <!-- Code content -->
    <g font-family="'Cascadia Code', 'Fira Code', 'Consolas', monospace" font-size="14">

      <!-- CodeLens: Run Request -->
      <text x="52" y="62" font-size="12" fill="#22c55e" opacity="0.9">&#9654; Run Request</text>

      <!-- Line 1: GET -->
      <text x="16" y="86" font-size="12" fill="#858585" text-anchor="middle">1</text>
      <text x="52" y="86" fill="#569cd6" font-weight="bold">GET</text>
      <text x="84" y="86" fill="#4ec9b0">https://api.example.com/users</text>

      <!-- Line 2: Header -->
      <text x="16" y="110" font-size="12" fill="#858585" text-anchor="middle">2</text>
      <text x="52" y="110" fill="#9cdcfe">Accept</text>
      <text x="104" y="110" fill="#d4d4d4">:</text>
      <text x="114" y="110" fill="#ce9178">application/json</text>

      <!-- Line 3: Header -->
      <text x="16" y="134" font-size="12" fill="#858585" text-anchor="middle">3</text>
      <text x="52" y="134" fill="#9cdcfe">Authorization</text>
      <text x="160" y="134" fill="#d4d4d4">:</text>
      <text x="170" y="134" fill="#ce9178">Bearer {{token}}</text>

      <!-- Line 4: blank -->
      <text x="16" y="158" font-size="12" fill="#858585" text-anchor="middle">4</text>

      <!-- Line 5: HTTP response -->
      <text x="16" y="182" font-size="12" fill="#858585" text-anchor="middle">5</text>
      <text x="52" y="182" fill="#569cd6">HTTP</text>
      <text x="84" y="182" fill="#b5cea8">200</text>

      <!-- Line 6: blank -->
      <text x="16" y="206" font-size="12" fill="#858585" text-anchor="middle">6</text>

      <!-- Line 7: [Asserts] -->
      <text x="16" y="230" font-size="12" fill="#858585" text-anchor="middle">7</text>
      <text x="52" y="230" fill="#dcdcaa">[Asserts]</text>

      <!-- Line 8: Assert 1 -->
      <text x="16" y="254" font-size="12" fill="#858585" text-anchor="middle">8</text>
      <text x="52" y="254" fill="#c586c0">header</text>
      <text x="104" y="254" fill="#ce9178">"Content-Type"</text>
      <text x="242" y="254" fill="#d4d4d4">==</text>
      <text x="264" y="254" fill="#ce9178">"application/json"</text>

      <!-- Line 9: Assert 2 -->
      <text x="16" y="278" font-size="12" fill="#858585" text-anchor="middle">9</text>
      <text x="52" y="278" fill="#c586c0">jsonpath</text>
      <text x="118" y="278" fill="#ce9178">"$.users"</text>
      <text x="200" y="278" fill="#d4d4d4">count</text>
      <text x="244" y="278" fill="#d4d4d4">==</text>
      <text x="264" y="278" fill="#b5cea8">10</text>

      <!-- Line 10: Assert 3 -->
      <text x="16" y="302" font-size="12" fill="#858585" text-anchor="middle">10</text>
      <text x="52" y="302" fill="#c586c0">jsonpath</text>
      <text x="118" y="302" fill="#ce9178">"$.users[0].name"</text>
      <text x="282" y="302" fill="#c586c0">exists</text>

      <!-- Line 11: Assert 4 -->
      <text x="16" y="326" font-size="12" fill="#858585" text-anchor="middle">11</text>
      <text x="52" y="326" fill="#c586c0">jsonpath</text>
      <text x="118" y="326" fill="#ce9178">"$.users[0].email"</text>
      <text x="298" y="326" fill="#c586c0">matches</text>
      <text x="362" y="326" fill="#ce9178">".*@.*"</text>

      <!-- Line 12: blank -->
      <text x="16" y="350" font-size="12" fill="#858585" text-anchor="middle">12</text>

      <!-- CodeLens: Run Request 2 -->
      <text x="52" y="374" font-size="12" fill="#22c55e" opacity="0.9">&#9654; Run Request</text>

      <!-- Line 13: POST -->
      <text x="16" y="398" font-size="12" fill="#858585" text-anchor="middle">13</text>
      <text x="52" y="398" fill="#569cd6" font-weight="bold">POST</text>
      <text x="92" y="398" fill="#4ec9b0">https://api.example.com/users</text>

      <!-- Line 14: Header -->
      <text x="16" y="422" font-size="12" fill="#858585" text-anchor="middle">14</text>
      <text x="52" y="422" fill="#9cdcfe">Content-Type</text>
      <text x="164" y="422" fill="#d4d4d4">:</text>
      <text x="174" y="422" fill="#ce9178">application/json</text>
    </g>

    <!-- Minimap hint -->
    <rect x="630" y="36" width="30" height="424" fill="#1a1a1a" opacity="0.5"/>
    <rect x="635" y="50" width="20" height="4" fill="#569cd6" opacity="0.3" rx="1"/>
    <rect x="635" y="58" width="18" height="3" fill="#9cdcfe" opacity="0.2" rx="1"/>
    <rect x="635" y="64" width="18" height="3" fill="#9cdcfe" opacity="0.2" rx="1"/>
    <rect x="635" y="76" width="12" height="3" fill="#569cd6" opacity="0.3" rx="1"/>
    <rect x="635" y="86" width="16" height="3" fill="#dcdcaa" opacity="0.2" rx="1"/>
    <rect x="635" y="92" width="22" height="3" fill="#c586c0" opacity="0.2" rx="1"/>
    <rect x="635" y="98" width="20" height="3" fill="#c586c0" opacity="0.2" rx="1"/>
    <rect x="635" y="104" width="22" height="3" fill="#c586c0" opacity="0.2" rx="1"/>
    <rect x="635" y="110" width="24" height="3" fill="#c586c0" opacity="0.2" rx="1"/>
  </g>

  <!-- Bottom: repo URL -->
  <text x="600" y="590" font-family="Inter, Helvetica, Arial, sans-serif" font-size="15" fill="#666" text-anchor="middle">github.com/atoolz/hurl-vscode-toolkit</text>

  <!-- Bottom green accent line -->
  <rect x="0" y="627" width="1200" height="3" fill="#22c55e" opacity="0.6"/>
</svg>